<svg width="22" height="23" viewBox="0 0 22 23" fill="none" xmlns="http://www.w3.org/2000/svg">
	<path d="M6.15051 7.39989C1.81968 2.59837 0.347937 0.960169 0.347937 0.960169C0.347937 0.960169 1.99691 2.42114 6.79848 6.75193C10.622 10.2006 10.8985 9.92413 10.8985 9.92413C10.8985 9.92413 11.1805 10.2062 14.6636 7.0646C19.6227 2.59172 21.4493 0.959834 21.4493 0.959834C21.4493 0.959834 19.8688 2.83784 15.4121 7.81311C12.2819 11.3076 12.5378 11.5635 12.5378 11.5635C12.5378 11.5635 12.2644 11.8368 15.7569 15.7103C20.0721 20.4963 21.4492 22.0614 21.4492 22.0614C21.4492 22.0614 19.8949 20.6735 15.1089 16.3583C11.2355 12.8658 10.9514 13.1499 10.9514 13.1499C10.9514 13.1499 10.6955 12.894 7.2124 16.0128C2.25332 20.4533 0.400591 22.0085 0.400591 22.0085C0.400591 22.0085 2.00721 20.2072 6.46389 15.2643C9.59409 11.7926 9.31205 11.5105 9.31205 11.5105C9.31205 11.5105 9.59919 11.2234 6.15051 7.39989Z" fill="#B29E77"/>
</svg>
