<svg width="23" height="22" viewBox="0 0 23 22" fill="none" xmlns="http://www.w3.org/2000/svg">
    <path d="M17.7664 16.8917C20.9153 20.3906 22.064 21.6795 22.064 21.6795C22.064 21.6795 20.7382 20.5677 17.2277 17.4304C15.0658 15.4984 7.02481 7.46093 5.07061 5.27339C1.94475 1.7743 0.850826 0.466248 0.850826 0.466248C0.850826 0.466248 2.12188 1.59717 5.60932 4.73468C7.76658 6.67548 15.8005 14.7074 17.7664 16.8917Z" fill="#EFBC6A"/>
    <path d="M17.2224 4.76392C20.7212 1.61499 22.0101 0.466258 22.0101 0.466258C22.0101 0.466258 20.8983 1.79212 17.7611 5.30263C15.829 7.46452 7.79156 15.5055 5.60402 17.4597C2.10492 20.5855 0.796875 21.6795 0.796875 21.6795C0.796875 21.6795 1.9278 20.4084 5.06531 16.921C7.00611 14.7637 15.038 6.72978 17.2224 4.76392Z" fill="#EFBC6A"/>
</svg>
