<svg width="19" height="19" viewBox="0 0 19 19" fill="none" xmlns="http://www.w3.org/2000/svg">
	<path d="M15.9075 2.68222C15.9075 2.68222 14.866 4.56922 14.3841 6.18838C13.9313 7.70983 13.8991 10.0552 13.8991 10.0552C13.8991 10.0552 13.8353 8.13359 12.1457 6.44397C10.4561 4.75435 8.53447 4.69063 8.53447 4.69063C8.53447 4.69063 10.9597 4.66296 12.4305 4.23476C14.0765 3.75555 15.9075 2.68222 15.9075 2.68222Z" fill="white"/>
	<path fill-rule="evenodd" clip-rule="evenodd" d="M6.22349 11.9486L11.9993 6.17279L12.4169 6.59044L6.64114 12.3662L6.22349 11.9486Z" fill="white"/>
	<path fill-rule="evenodd" clip-rule="evenodd" d="M7.93594 6.30342H2.64531C1.54959 6.30342 0.661328 7.19168 0.661328 8.2874V16.2233C0.661328 17.3191 1.54959 18.2073 2.64531 18.2073H10.5813C11.677 18.2073 12.5652 17.3191 12.5652 16.2233V10.9327H13.2266V16.2233C13.2266 17.6843 12.0422 18.8687 10.5813 18.8687H2.64531C1.18435 18.8687 0 17.6843 0 16.2233V8.2874C0 6.82644 1.18435 5.64209 2.64531 5.64209H7.93594V6.30342Z" fill="white"/>
</svg>
