<svg width="12" height="16" viewBox="0 0 12 16" fill="none" xmlns="http://www.w3.org/2000/svg">
    <path d="M4.22072 5.92278C4.87782 5.07388 5.44926 4.0833 5.82396 3.07407C6.22616 4.10591 6.82887 5.1316 7.52001 6.02279C8.28949 7.01499 9.20586 7.8882 10.1323 8.41494C9.94817 8.51316 9.76698 8.62428 9.59004 8.74545C8.87776 9.23321 8.18974 9.91372 7.59135 10.6868C6.9345 11.5353 6.36325 12.5255 5.98855 13.5343C5.58771 12.5033 4.98756 11.4781 4.29785 10.5871C3.52921 9.59412 2.61241 8.72028 1.68179 8.19355C1.86521 8.09559 2.04574 7.98483 2.22203 7.86411C2.93432 7.37634 3.62234 6.69583 4.22072 5.92278Z" fill="#EFBC6A" stroke="#EFBC6A"/>
</svg>
