<svg width="88" height="50" viewBox="0 0 88 50" fill="none" xmlns="http://www.w3.org/2000/svg">
    <path fill-rule="evenodd" clip-rule="evenodd" d="M87.9991 34.9262C86.6642 34.9262 85.7727 35.1764 85.3217 35.6798L85.3222 35.6802C84.8738 36.1789 84.6499 37.1436 84.6499 38.5676V45.5574C84.6499 46.9593 84.8435 47.9707 85.2307 48.5796C85.6157 49.1907 86.321 49.4977 87.3426 49.4977H88V49.9519H69.4062C65.8374 49.9519 62.7117 49.5787 60.029 48.8349C57.3464 48.0911 54.6131 46.6769 51.8262 44.5948C50.6391 43.7085 49.5488 42.7289 48.5553 41.656C46.6065 42.1496 44.4994 42.3952 42.24 42.3952C41.221 42.3952 40.2376 42.3337 39.2898 42.2086C39.3281 42.7637 39.3919 43.1491 39.4733 43.3675C39.6388 43.7996 39.9292 44.158 40.3419 44.4379C40.7546 44.7203 41.47 44.8602 42.4816 44.8602V45.3144H30.7126V44.8602C31.9842 44.8602 32.8347 44.61 33.2628 44.1067C33.6473 43.6546 33.8585 42.5156 33.8995 40.6815C32.2257 39.9004 30.7099 38.8522 29.3521 37.5363C26.0073 34.2957 24.3362 30.4087 24.3362 25.8717C24.3362 24.9681 24.4074 24.0547 24.55 23.1366H8.57727V40.2197C8.57727 41.8278 8.65603 42.854 8.81399 43.2912C8.96931 43.7356 9.26279 44.1062 9.69046 44.4082C10.1181 44.7101 10.8622 44.8598 11.927 44.8598V45.314H0V44.8598C2.1705 45.0023 3.25553 43.9858 3.25553 41.8129V6.08518C3.25553 4.05946 3.08481 2.77075 2.73853 2.22795C2.39446 1.68516 1.48279 1.38323 0 1.32428V0.870117H11.927V1.32428C10.6127 1.40273 9.7261 1.64572 9.26763 2.04603C8.80651 2.44846 8.57727 3.27368 8.57727 4.52083V21.9017H24.7766C25.1717 20.1092 25.8313 18.29 26.7535 16.4437C28.3458 13.2641 30.7275 10.6616 33.9043 8.64098V5.9991C33.9043 4.18922 33.7437 2.95691 33.4203 2.30386C33.0969 1.65081 32.1927 1.32428 30.7126 1.32428V0.870117H42.4816V1.32471C41.5514 1.32471 40.8589 1.4303 40.4052 1.64148C39.9494 1.85266 39.6383 2.17918 39.4729 2.62105C39.3096 3.06292 39.2256 4.19007 39.2256 5.99444V6.304C41.1796 5.7735 43.289 5.50847 45.5563 5.50847C49.3644 5.50847 52.6736 6.2917 55.4861 7.85817C59.3378 5.84729 63.6762 4.84566 68.4959 4.84566C73.0252 4.84566 77.8145 5.8104 82.8661 7.74283L84.7739 12.8718H84.3155C82.7082 10.9004 80.5122 9.2652 77.7279 7.96885C74.9458 6.66996 71.8407 6.022 68.422 6.022C64.2618 6.022 60.6266 7.08002 57.5189 9.19396C57.888 9.47638 58.2475 9.77576 58.5964 10.09C61.9743 13.1445 63.6634 16.9546 63.6634 21.5239C63.6634 27.4039 61.7094 32.3509 57.7991 36.3701C56.0106 38.2093 53.9523 39.6261 51.6264 40.6251C51.9195 41.0255 52.238 41.4232 52.5768 41.821C54.299 43.8412 56.1461 45.3318 58.1177 46.2867C60.092 47.2417 62.2981 47.9045 64.741 48.2777C67.1812 48.6483 69.1224 48.815 70.5617 48.7734L73.0353 48.7145C75.8324 48.614 77.58 48.3638 78.2805 47.9609C78.9788 47.5585 79.3277 46.5323 79.3277 44.8823V38.155C79.3277 36.8464 79.0474 35.9673 78.482 35.5157C77.9193 35.0611 77.1167 34.8647 76.0722 34.9262V34.4746H87.9991V34.9262ZM47.4384 40.3637H47.441H47.4415C48.5881 40.2115 49.7268 39.9291 50.8602 39.5143C51.6139 39.2417 52.3681 38.9105 53.1196 38.5199C55.6566 37.199 57.6538 35.3798 59.111 33.0644C60.5679 30.7469 61.2991 28.3654 61.2991 25.9199C61.2991 22.4532 60.3157 19.3033 58.3516 16.4676C57.1799 14.7735 55.7992 13.3003 54.2121 12.0506C53.3999 11.4073 52.5335 10.823 51.6139 10.3001C51.3209 10.1284 51.0204 9.96639 50.7146 9.80907C47.584 8.2057 44.6902 7.40296 42.033 7.40296C41.9846 7.40296 41.9415 7.40296 41.8931 7.40551C41.8905 7.40296 41.8856 7.40296 41.883 7.40551C41.8474 7.40296 41.8117 7.40296 41.7761 7.40296C40.9071 7.40296 40.0561 7.47378 39.2259 7.61881C37.3559 7.93812 35.5827 8.62043 33.9041 9.66404C33.0989 10.1649 32.3144 10.7467 31.5501 11.4145C28.4909 14.0857 26.9597 17.4078 26.9597 21.3752C26.9597 21.5521 26.9619 21.7264 26.9671 21.9007C26.9773 22.3154 27.0001 22.728 27.0358 23.1355C27.423 27.4863 29.2674 31.3529 32.5639 34.7437C33.0043 35.1953 33.45 35.6202 33.9037 36.018C35.5902 37.503 37.3634 38.6204 39.2254 39.3642C41.1077 40.1228 43.0798 40.5011 45.1456 40.5011C45.2067 40.5011 45.2652 40.5011 45.3264 40.4986C45.3306 40.5 45.3348 40.4998 45.3387 40.4994C45.3416 40.4991 45.3443 40.4986 45.3466 40.4986H45.4003C46.0832 40.4986 46.7608 40.4545 47.4384 40.3637Z" fill="white"/>
    <path fill-rule="evenodd" clip-rule="evenodd" d="M44.0477 19.9537C42.3942 19.0746 41.0113 17.6973 40.1604 15.9175C41.6049 18.9397 41.131 22.3428 39.2254 24.8519C38.334 26.0232 37.1314 27.0028 35.6641 27.6533C36.8182 27.1402 38.0282 26.8772 39.2254 26.8429C40.3386 26.8111 41.4443 26.9756 42.4809 27.3191C44.7711 28.0752 46.748 29.7006 47.8409 31.9863C46.4422 29.062 46.84 25.787 48.5872 23.305C49.4914 22.0209 50.7625 20.9481 52.3346 20.2509C51.2927 20.7148 50.205 20.9727 49.1248 21.0439C47.3468 21.1593 45.5838 20.7712 44.0477 19.9537Z" fill="white"/>
</svg>
