<svg width="20" height="20" viewBox="0 0 20 20" fill="none" xmlns="http://www.w3.org/2000/svg">
	<path fill-rule="evenodd" clip-rule="evenodd" d="M9.49178 19.9836L9.49178 0L10.4918 0L10.4918 19.9836H9.49178Z" fill="#080808"/>
	<path fill-rule="evenodd" clip-rule="evenodd" d="M1.19209e-07 9.49182L19.9836 9.49182V10.4918L0 10.4918L1.19209e-07 9.49182Z" fill="#080808"/>
	<path fill-rule="evenodd" clip-rule="evenodd" d="M1.01592 5.57527L19.365 13.4907L18.9677 14.4084L0.618598 6.49295L1.01592 5.57527Z" fill="#080808"/>
	<path fill-rule="evenodd" clip-rule="evenodd" d="M3.30394 2.55199L17.3895 16.7273L16.6796 17.4316L2.59403 3.25629L3.30394 2.55199Z" fill="#080808"/>
	<path fill-rule="evenodd" clip-rule="evenodd" d="M6.58926 0.584401L14.3169 19.0134L13.3943 19.3992L5.6667 0.970245L6.58926 0.584401Z" fill="#080808"/>
	<path fill-rule="evenodd" clip-rule="evenodd" d="M14.4235 1.02307L6.47736 19.3589L5.56012 18.9606L13.5062 0.624738L14.4235 1.02307Z" fill="#080808"/>
	<path fill-rule="evenodd" clip-rule="evenodd" d="M17.4367 3.30977L3.25054 17.3844L2.54693 16.6739L16.7331 2.59918L17.4367 3.30977Z" fill="#080808"/>
	<path fill-rule="evenodd" clip-rule="evenodd" d="M19.4058 6.60509L0.963575 14.3011L0.577766 13.3785L19.02 5.68251L19.4058 6.60509Z" fill="#080808"/>
</svg>
