<svg width="31" height="22" viewBox="0 0 31 22" fill="none" xmlns="http://www.w3.org/2000/svg">
	<path d="M23.6411 0.688171C28.3418 0.935606 30.0654 1.0347 30.0654 1.0347C30.0654 1.0347 28.3418 1.1861 23.6411 1.45002C20.7462 1.61255 9.37709 1.61502 6.44843 1.45002C1.76388 1.1861 0.0654297 1.0347 0.0654297 1.0347C0.0654297 1.0347 1.76388 0.935606 6.44843 0.688171C9.3462 0.535112 20.7065 0.533697 23.6411 0.688171Z" fill="#EFBC6A"/>
	<path d="M23.6411 10.6882C28.3418 10.9356 30.0654 11.0347 30.0654 11.0347C30.0654 11.0347 28.3418 11.1861 23.6411 11.45C20.7462 11.6126 9.37709 11.615 6.44843 11.45C1.76388 11.1861 0.0654297 11.0347 0.0654297 11.0347C0.0654297 11.0347 1.76388 10.9356 6.44843 10.6882C9.3462 10.5351 20.7065 10.5337 23.6411 10.6882Z" fill="#EFBC6A"/>
	<path d="M23.6411 20.6882C28.3418 20.9356 30.0654 21.0347 30.0654 21.0347C30.0654 21.0347 28.3418 21.1861 23.6411 21.45C20.7462 21.6126 9.37709 21.615 6.44843 21.45C1.76388 21.1861 0.0654297 21.0347 0.0654297 21.0347C0.0654297 21.0347 1.76388 20.9356 6.44843 20.6882C9.3462 20.5351 20.7065 20.5337 23.6411 20.6882Z" fill="#EFBC6A"/>
</svg>
