<svg width="41" height="57" viewBox="0 0 41 57" fill="none" xmlns="http://www.w3.org/2000/svg">
	<path fill-rule="evenodd" clip-rule="evenodd" d="M27.3887 0.771484C27.3887 0.771484 27.167 4.91256 26.5403 17.0728C26.4733 18.3719 26.4166 19.6327 26.3702 20.8667C22.2788 20.6528 18.5984 20.6626 14.506 20.8931C14.4594 19.6479 14.4024 18.3782 14.3351 17.0728C13.7082 4.91256 13.4579 0.771484 13.4579 0.771484C13.4579 0.771484 13.2362 4.91256 12.6095 17.0728C12.5396 18.4278 12.481 19.7412 12.4334 21.0259C12.3611 21.0311 12.2886 21.0363 12.216 21.0416C3.61169 21.6684 0.830078 21.89 0.830078 21.89C0.830078 21.89 3.6117 22.1403 12.216 22.7672C12.2691 22.7711 12.3221 22.7749 12.375 22.7787C12.252 26.9337 12.2497 30.8413 12.3668 34.9615L12.216 34.9724C3.61169 35.5992 0.830078 35.8208 0.830078 35.8208C0.830078 35.8208 3.6117 36.0712 12.216 36.698L12.4233 36.713C12.4726 38.0837 12.5347 39.484 12.6095 40.9302C13.2362 53.0489 13.4579 56.9667 13.4579 56.9667C13.4579 56.9667 13.7082 53.0489 14.3351 40.9302C14.4075 39.5309 14.4678 38.1744 14.5161 36.8469C18.6269 37.0775 22.3146 37.0841 26.3599 36.8733C26.4083 38.1928 26.4684 39.5404 26.5403 40.9302C27.167 53.0489 27.3887 56.9667 27.3887 56.9667C27.3887 56.9667 27.639 53.0489 28.2659 40.9302C28.3401 39.496 28.4016 38.1067 28.4505 36.7475C28.6837 36.7317 28.9183 36.7152 29.1547 36.698C37.7885 36.0712 40.7286 35.8208 40.7286 35.8208C40.7286 35.8208 37.7885 35.5992 29.1547 34.9724C28.938 34.9567 28.7228 34.9415 28.509 34.9269C28.6249 30.8087 28.6214 26.9145 28.5011 22.8132C28.7176 22.7985 28.9354 22.7831 29.1547 22.7672C37.7885 22.1403 40.7286 21.89 40.7286 21.89C40.7286 21.89 37.7885 21.6684 29.1547 21.0416C28.9148 21.0242 28.6768 21.0075 28.4405 20.9915C28.3932 19.7147 28.335 18.4126 28.2659 17.0728C27.639 4.91256 27.3887 0.771484 27.3887 0.771484ZM26.3009 22.9456C26.3207 22.2599 26.3438 21.5676 26.3702 20.8667C27.0478 20.9022 27.7366 20.9437 28.4405 20.9915C28.4632 21.6041 28.4834 22.2109 28.5011 22.8132C27.7535 22.8642 27.0216 22.9083 26.3009 22.9456ZM26.2929 34.7935C26.3119 35.4803 26.3343 36.1729 26.3599 36.8733C27.0453 36.8376 27.7409 36.7957 28.4505 36.7475C28.4726 36.135 28.492 35.5286 28.509 34.9269C27.7545 34.8754 27.0173 34.831 26.2929 34.7935ZM14.5812 34.8197C18.6177 34.5947 22.2574 34.585 26.2929 34.7935C26.1821 30.7901 26.1844 26.982 26.3009 22.9456C22.2975 23.1522 18.6412 23.1456 14.5734 22.9193C14.554 22.2499 14.5316 21.5752 14.506 20.8931C13.8277 20.9313 13.1381 20.9756 12.4334 21.0259C12.4116 21.6158 12.3921 22.1997 12.375 22.7787C13.1234 22.8324 13.8548 22.8793 14.5734 22.9193C14.6896 26.9461 14.6931 30.7765 14.5812 34.8197ZM14.5812 34.8197C14.5626 35.489 14.5409 36.1641 14.5161 36.8469C13.8314 36.8085 13.135 36.7639 12.4233 36.713C12.4021 36.1241 12.3833 35.5407 12.3668 34.9615C13.1207 34.9073 13.8573 34.8601 14.5812 34.8197Z" fill="#EFBC6A"/>
</svg>
