<svg width="18" height="19" viewBox="0 0 18 19" fill="none" xmlns="http://www.w3.org/2000/svg">
    <path fill-rule="evenodd" clip-rule="evenodd" d="M11.3284 3.69151C13.6659 6.02896 13.6659 9.8187 11.3284 12.1561C8.991 14.4936 5.20126 14.4936 2.86381 12.1561C0.526371 9.8187 0.526371 6.02896 2.86381 3.69151C5.20126 1.35407 8.991 1.35407 11.3284 3.69151ZM12.4248 12.4411C14.7567 9.6966 14.6269 5.57578 12.0356 2.98441C9.30759 0.256437 4.88468 0.256438 2.15671 2.98441C-0.57126 5.71237 -0.57126 10.1353 2.15671 12.8633C4.78384 15.4904 8.98292 15.5875 11.7263 13.1546C11.7334 13.1623 11.7407 13.1698 11.7482 13.1773L16.9388 18.3679C17.1969 18.626 17.5644 18.6769 17.7596 18.4816C17.9549 18.2864 17.904 17.9189 17.6459 17.6608L12.4553 12.4702C12.4453 12.4602 12.4351 12.4505 12.4248 12.4411Z" fill="white"/>
</svg>
