<svg width="17" height="17" viewBox="0 0 17 17" fill="none" xmlns="http://www.w3.org/2000/svg">
    <path fill-rule="evenodd" clip-rule="evenodd" d="M14.6077 3.62481C15.0897 2.00565 16.1311 0.118652 16.1311 0.118652C16.1311 0.118652 14.3001 1.19198 12.6541 1.67119C11.1833 2.09939 8.7581 2.12706 8.7581 2.12706C8.7581 2.12706 10.522 2.18555 12.1558 3.67635L6.44712 9.38501L6.86477 9.80266L12.5734 4.094C14.0642 5.72779 14.1227 7.49164 14.1227 7.49164C14.1227 7.49164 14.1549 5.14626 14.6077 3.62481ZM2.86748 3.73985H8.15811V3.07852H2.86748C1.40651 3.07852 0.222168 4.26286 0.222168 5.72383V13.6598C0.222168 15.1207 1.40651 16.3051 2.86748 16.3051H10.8034C12.2644 16.3051 13.4487 15.1207 13.4487 13.6598V8.36914H12.7874V13.6598C12.7874 14.7555 11.8991 15.6438 10.8034 15.6438H2.86748C1.77176 15.6438 0.883496 14.7555 0.883496 13.6598V5.72383C0.883496 4.62811 1.77176 3.73985 2.86748 3.73985Z" fill="#EFBC6A"/>
</svg>
