<svg width="44" height="44" viewBox="0 0 44 44" fill="none" xmlns="http://www.w3.org/2000/svg">
    <circle cx="22" cy="22" r="21.5" stroke="#EFBC6A"/>
    <path d="M29.7826 15.8071C27.9192 14.3076 24.9714 14.0534 24.8453 14.0443C24.6496 14.0278 24.4631 14.1376 24.3826 14.3186C24.3753 14.3296 24.3113 14.4777 24.24 14.7081C25.4725 14.9166 26.9866 15.3353 28.3562 16.1856C28.5757 16.3209 28.6433 16.6099 28.508 16.8293C28.4184 16.9738 28.2666 17.0524 28.1094 17.0524C28.0253 17.0524 27.9393 17.0286 27.8625 16.9811C25.5072 15.52 22.5668 15.4469 21.9999 15.4469C21.433 15.4469 18.4908 15.52 16.1373 16.9811C15.9179 17.1182 15.6289 17.0506 15.4936 16.8311C15.3565 16.6099 15.4241 16.3228 15.6436 16.1856C17.0132 15.3371 18.5273 14.9166 19.7598 14.7099C19.6885 14.4777 19.6245 14.3314 19.619 14.3186C19.5367 14.1376 19.352 14.0242 19.1546 14.0443C19.0284 14.0534 16.0806 14.3076 14.1916 15.8272C13.206 16.7397 11.2329 22.072 11.2329 26.682C11.2329 26.7643 11.2549 26.8429 11.2951 26.9142C12.6556 29.3061 16.3695 29.9315 17.2162 29.9589C17.2199 29.9589 17.2253 29.9589 17.2308 29.9589C17.3808 29.9589 17.5216 29.8876 17.6094 29.7669L18.4652 28.5893C16.1556 27.9931 14.9761 26.9801 14.9085 26.9197C14.7146 26.7496 14.6963 26.4534 14.8682 26.2596C15.0383 26.0657 15.3345 26.0475 15.5284 26.2175C15.5558 26.2431 17.7282 28.0864 21.9999 28.0864C26.2789 28.0864 28.4513 26.2358 28.4733 26.2175C28.6671 26.0493 28.9615 26.0657 29.1334 26.2614C29.3035 26.4552 29.2852 26.7496 29.0914 26.9197C29.0237 26.9801 27.8442 27.9931 25.5347 28.5893L26.3905 29.7669C26.4782 29.8876 26.619 29.9589 26.769 29.9589C26.7745 29.9589 26.78 29.9589 26.7836 29.9589C27.6303 29.9315 31.3442 29.3061 32.7047 26.9142C32.745 26.8429 32.7669 26.7643 32.7669 26.682C32.7669 22.072 30.7938 16.7397 29.7826 15.8071ZM18.9571 24.8095C18.0519 24.8095 17.3186 23.972 17.3186 22.9369C17.3186 21.9019 18.0519 21.0644 18.9571 21.0644C19.8622 21.0644 20.5955 21.9019 20.5955 22.9369C20.5955 23.972 19.8622 24.8095 18.9571 24.8095ZM25.0428 24.8095C24.1376 24.8095 23.4043 23.972 23.4043 22.9369C23.4043 21.9019 24.1376 21.0644 25.0428 21.0644C25.9479 21.0644 26.6812 21.9019 26.6812 22.9369C26.6812 23.972 25.9479 24.8095 25.0428 24.8095Z" fill="#EFBC6A"/>
</svg>
