<svg width="44" height="44" viewBox="0 0 44 44" fill="none" xmlns="http://www.w3.org/2000/svg">
    <circle cx="22" cy="22" r="21.5" stroke="#EFBC6A"/>
    <path d="M17.7607 11.8291C14.4902 11.8291 11.8291 14.4918 11.8291 17.7631V26.2382C11.8291 29.5091 14.4918 32.1707 17.7631 32.1707H26.2382C29.5091 32.1707 32.1707 29.508 32.1707 26.2366V17.7607C32.1707 14.4902 29.508 11.8291 26.2366 11.8291H17.7607ZM28.1023 15.0837C28.5515 15.0837 28.916 15.4483 28.916 15.8974C28.916 16.3466 28.5515 16.7111 28.1023 16.7111C27.6532 16.7111 27.2887 16.3466 27.2887 15.8974C27.2887 15.4483 27.6532 15.0837 28.1023 15.0837ZM21.9999 16.7111C24.9169 16.7111 27.2887 19.0829 27.2887 21.9999C27.2887 24.9169 24.9164 27.2887 21.9999 27.2887C19.0829 27.2887 16.7111 24.9164 16.7111 21.9999C16.7111 19.0833 19.0829 16.7111 21.9999 16.7111ZM21.9999 18.3384C19.9775 18.3384 18.3384 19.9775 18.3384 21.9999C18.3384 24.0222 19.9775 25.6614 21.9999 25.6614C24.0222 25.6614 25.6614 24.0222 25.6614 21.9999C25.6614 19.9775 24.0222 18.3384 21.9999 18.3384Z" fill="#EFBC6A"/>
</svg>
