<svg width="22" height="22" viewBox="0 0 22 22" fill="none" xmlns="http://www.w3.org/2000/svg">
    <path d="M21.5 11C21.5 16.799 16.799 21.5 11 21.5C5.20101 21.5 0.5 16.799 0.5 11C0.5 5.20101 5.20101 0.5 11 0.5C16.799 0.5 21.5 5.20101 21.5 11Z" stroke="#EFBC6A"/>
    <path d="M8.1875 8.1875H5.9375V16.0625H8.1875V8.1875Z" fill="#EFBC6A"/>
    <path d="M13.5307 8.1875C11.9608 8.1875 11.6907 8.76012 11.5625 9.3125V8.1875H9.3125V16.0625H11.5625V11.5625C11.5625 10.8329 11.9579 10.4375 12.6875 10.4375C13.3996 10.4375 13.8125 10.8245 13.8125 11.5625V16.0625H16.0625V12.125C16.0625 9.875 15.7694 8.1875 13.5307 8.1875Z" fill="#EFBC6A"/>
    <path d="M7.0625 7.625C7.68382 7.625 8.1875 7.12132 8.1875 6.5C8.1875 5.87868 7.68382 5.375 7.0625 5.375C6.44118 5.375 5.9375 5.87868 5.9375 6.5C5.9375 7.12132 6.44118 7.625 7.0625 7.625Z" fill="#EFBC6A"/>
</svg>
