<svg width="44" height="44" viewBox="0 0 44 44" fill="none" xmlns="http://www.w3.org/2000/svg">
    <circle cx="22" cy="22" r="21.5" stroke="#EFBC6A"/>
    <path d="M16.3329 14.6646C20.3828 14.6646 23.6656 17.9703 23.6656 22.0478C23.6656 26.1253 20.3825 29.4308 16.3329 29.4308C12.2833 29.4308 9 26.1253 9 22.0478C9 17.9703 12.283 14.6646 16.3329 14.6646ZM28.043 15.097C30.068 15.097 31.7095 18.2087 31.7095 22.0478H31.7097C31.7097 25.8859 30.0682 28.9985 28.0433 28.9985C26.0183 28.9985 24.3768 25.8859 24.3768 22.0478C24.3768 18.2097 26.0181 15.097 28.043 15.097ZM33.7105 15.821C34.4225 15.821 35 18.6088 35 22.0478C35 25.4858 34.4228 28.2745 33.7105 28.2745C32.9982 28.2745 32.4213 25.4865 32.4213 22.0478C32.4213 18.609 32.9985 15.821 33.7105 15.821Z" fill="#EFBC6A"/>
</svg>
