<svg width="44" height="44" viewBox="0 0 44 44" fill="none" xmlns="http://www.w3.org/2000/svg">
    <circle cx="22" cy="22" r="21.5" stroke="#EFBC6A"/>
    <path d="M30.1974 14.4621C29.9068 14.2157 29.4503 14.1804 28.9783 14.3699H28.9775C28.4811 14.5691 14.9255 20.3835 14.3736 20.621C14.2733 20.6559 13.3967 20.983 13.487 21.7115C13.5676 22.3684 14.2721 22.6404 14.3581 22.6718L17.8044 23.8518C18.033 24.6129 18.8759 27.4209 19.0623 28.0208C19.1786 28.3948 19.3681 28.8862 19.7002 28.9873C19.9916 29.0997 20.2815 28.997 20.469 28.8497L22.576 26.8955L25.9773 29.5481L26.0583 29.5965C26.2892 29.6988 26.5105 29.75 26.7217 29.75C26.8849 29.75 27.0414 29.7193 27.191 29.6581C27.7006 29.4489 27.9044 28.9633 27.9258 28.9083L30.4664 15.7026C30.6214 14.9973 30.4059 14.6384 30.1974 14.4621ZM20.8437 24.3238L19.6812 27.424L18.5186 23.5488L27.4317 16.9609L20.8437 24.3238Z" fill="#EFBC6A"/>
</svg>
