<svg width="44" height="44" viewBox="0 0 44 44" fill="none" xmlns="http://www.w3.org/2000/svg">
    <circle cx="22" cy="22" r="21.5" stroke="#EFBC6A"/>
    <path d="M32.1598 15.6984C31.4108 16.0309 30.6078 16.2542 29.7637 16.3556C30.6253 15.8393 31.2872 15.0222 31.5976 14.0498C30.7931 14.5265 29.8984 14.8733 28.9497 15.0602C28.1896 14.2493 27.1064 13.7441 25.9075 13.7441C23.6049 13.7441 21.7377 15.6097 21.7377 17.9123C21.7377 18.2386 21.7757 18.5569 21.847 18.8625C18.382 18.6883 15.3112 17.0287 13.2541 14.5059C12.8946 15.1235 12.6903 15.8393 12.6903 16.6027C12.6903 18.0485 13.4251 19.325 14.5447 20.074C13.8606 20.0519 13.2176 19.8634 12.6554 19.5514C12.6554 19.5689 12.6554 19.5863 12.6554 19.6037C12.6554 21.6244 14.0934 23.3079 15.9985 23.6927C15.6501 23.7877 15.2811 23.8384 14.9011 23.8384C14.6318 23.8384 14.3705 23.8131 14.1156 23.7624C14.6477 25.4173 16.187 26.6257 18.0098 26.6589C16.5845 27.777 14.787 28.4421 12.8328 28.4421C12.4955 28.4421 12.1645 28.4231 11.8398 28.3835C13.6832 29.5681 15.875 30.257 18.2299 30.257C25.898 30.257 30.0916 23.9049 30.0916 18.3969C30.0916 18.2164 30.0868 18.0343 30.0805 17.8569C30.8945 17.2694 31.6008 16.5346 32.1598 15.6984Z" fill="#EFBC6A"/>
</svg>
